# xmcd
#
# Track frame offsets: 
#        150
#        14482
#        30897
#        47914
#        62220
#        79210
#        90925
#        104322
#        121725
#        133005
#        150030
#        167247
#        186997
#        205702
#        221445
#        247525
#
# Disc length: 3312 seconds
#
# Revision: 0
# Processed by: cddbd v1.5.1PL0 Copyright (c) Steve Scherf et al.
# Submitted via: ExactAudioCopy v0.95a5
#
DISCID=c00cee10
DTITLE=Various Artist - Brick 2 CDG 7544
DYEAR=1900
DGENRE=Country/Karaoke
TTITLE0=Hank Williams - Jambalaya (On The Bayou)
TTITLE1=Eddie Rabbitt - I Love A Rainy Night
TTITLE2=Clint Black and Wynonna Judd - A Bad Goodbye
TTITLE3=Hank Snow - I'm Movin On
TTITLE4=Don Williams - Tulsa Time
TTITLE5=Jim Reeves - He'll Have To Go
TTITLE6=Eddy Arnold - You Don't Know Me
TTITLE7=Marty Robbins - My Woman, My Woman, My Wife
TTITLE8=Buck Owens - Act Naturally
TTITLE9=Nitty Gritty Dirt Band - Mr. Bojangles
TTITLE10=Jeanne Pruett - Satin Sheets
TTITLE11=Frank Sinatra - All Of Me
TTITLE12=Ronnie Milsap - Any Day Now
TTITLE13=Terri Gibbs - Somebody's Knockin'
TTITLE14=Ray Price - Heartaches By The Number
TTITLE15=data
EXTD=
EXTT0=
EXTT1=
EXTT2=
EXTT3=
EXTT4=
EXTT5=
EXTT6=
EXTT7=
EXTT8=
EXTT9=
EXTT10=
EXTT11=
EXTT12=
EXTT13=
EXTT14=
EXTT15=
PLAYORDER=
